<?xml version="1.0" encoding="utf-8"?>
<!-- Generator: Adobe Illustrator 19.0.0, SVG Export Plug-In . SVG Version: 6.00 Build 0)  -->
<svg version="1.1" id="Capa_1" xmlns="http://www.w3.org/2000/svg" xmlns:xlink="http://www.w3.org/1999/xlink" x="0px" y="0px"
	 viewBox="-202 71 960 560" style="enable-background:new -202 71 960 560;" xml:space="preserve">
<style type="text/css">
	.st0{opacity:0.1;}
	.st1{fill:url(#XMLID_27_);}
	.st2{fill:#FFFFFF;}
	.st3{fill:#FDFEFF;}
</style>
<g id="XMLID_3_" class="st0">
	
		<linearGradient id="XMLID_27_" gradientUnits="userSpaceOnUse" x1="-202" y1="353" x2="758" y2="353" gradientTransform="matrix(1 0 0 -1 0 704)">
		<stop  offset="0" style="stop-color:#878787"/>
		<stop  offset="1" style="stop-color:#383838"/>
	</linearGradient>
	<rect id="XMLID_1_" x="-202" y="71" class="st1" width="960" height="560"/>
	<path id="XMLID_11_" class="st2" d="M200.1,570.1c-32.4-9.3-72-9.9-114.6-1.8c-44,8.4-90,25.9-133.4,50.8
		c-6.5,3.8-13,7.7-19.4,11.8h342.1c-1.1-2.6-2.3-5.1-3.6-7.5C257.9,598.1,233.2,579.6,200.1,570.1z"/>
	<path id="XMLID_12_" class="st2" d="M288,540.4c-16.3-30.6-46-52.8-85.8-64.2c-38.9-11.2-86.7-12-138-2.2
		c-52.9,10.1-108.4,31.2-160.4,61.2c-39.2,22.5-75,49.1-105.8,78.4V631h115.1c13.4-10.6,27.6-20.6,42.7-30
		c53.9-33.8,113.8-56.6,168.6-64.1c54.3-7.4,101,0.3,131.6,21.9c24,16.9,37.4,41.4,39.9,72.2h4l1.5-14.5
		C304.3,588.1,299.8,562.6,288,540.4z"/>
	<path id="XMLID_13_" class="st2" d="M-189.5,376.3c-4.2,2.4-8.4,4.9-12.5,7.3v48.7c118.6-86.7,246.9-116.8,352.5-123.6
		C61.5,283.1-66.7,305.7-189.5,376.3z"/>
	<path id="XMLID_14_" class="st2" d="M202.8,320c4.2,3.5,8.4,7.3,12.2,11.3c0,0,28.2,29.2,37.5,56.7l-9-14.3
		c-14.3-22.5-34.7-40-59.9-52.4C69,330.9-76.4,366.5-202,470.2v7.9c33.6-26.8,69.8-50.1,107.9-69.5c40.7-20.7,81.7-36,122.1-45.5
		c40.6-9.5,78.6-12.8,113-9.7c66.1,5.9,113.5,34.8,137.1,83.7c0,0,18.1,36.7,19.7,74l-5.1-21.2c-2.7-11-6.6-21.4-11.8-31.2
		c-18-33.9-50.9-58.5-94.9-71.1c-43.1-12.4-95.9-13.2-152.7-2.4c-58.6,11.2-119.9,34.6-177.5,67.7c-20.2,11.4-39.5,24-57.8,37.4
		v114.6c20.3-21.1,42.9-41,67.8-59.5C-97.4,518-57.5,495-15.7,477c84.1-36.2,166.3-47.6,225.6-31.2c54.9,15.2,87.7,53.1,94.7,109.6
		c0,0,3.7,36.1-3.4,75.6H377V327.5C357,324,290.3,314.7,202.8,320z"/>
	<path id="XMLID_15_" class="st2" d="M-202,245.5V260c50.2-26.1,100.7-43.1,148.7-53.7c-11.8,0.9-23.8,2.3-36.1,4.4
		C-126.3,217-164.5,228.9-202,245.5z"/>
	<path id="XMLID_16_" class="st3" d="M-202,206.2c0,0,65.2-22.5,134.4-12l-27.6,1.1c-33.8,1.2-70.3,9.1-106.7,22.6v17.2
		c56.7-26.1,123.4-39.3,181.4-35.3c145.1-24.5,260.6,5.4,260.6,5.4c-22.5-3.8-111.3-16.3-220.7,0.3c10.3,2.4,26.8,7.3,43.4,17
		l-13.5-4.9c-13.2-4.7-27.6-8.1-43-10.1c-65.9,11.3-138.4,33.3-208.3,74v8.5c105.3-57.5,218.6-79.1,300.8-49.5
		c131.6-9.5,228.4,17.3,228.4,17.3c-22.1-3.7-100.7-14.8-202-5.4c5.7,3.1,30.3,17.5,40.8,32.3l-6-4.9c-13.7-11-29.7-19.7-47.6-26.2
		C16.9,264.1-96.9,293.2-202,363.2v7.9c9-5.9,18.2-11.6,27.5-17c75.2-44,154.5-70.8,223.4-75.6c54.2-3.8,100.5,6.1,136.4,28.7
		C294.1,305.1,372,326,377,327.4V71h-579V206.2z"/>
	<path id="XMLID_17_" class="st2" d="M-202,300.6v31.6c92.7-55.2,188.4-79.9,272.5-89.1C-6.7,230.9-105.8,250.8-202,300.6z"/>
	<rect id="XMLID_2_" x="373.7" y="71" class="st2" width="384.3" height="560"/>
</g>
<g id="XMLID_4_">
</g>
<g id="XMLID_5_">
</g>
<g id="XMLID_6_">
</g>
<g id="XMLID_7_">
</g>
<g id="XMLID_8_">
</g>
<g id="XMLID_9_">
</g>
<g id="XMLID_10_">
</g>
<g id="XMLID_18_">
</g>
<g id="XMLID_19_">
</g>
<g id="XMLID_20_">
</g>
<g id="XMLID_21_">
</g>
<g id="XMLID_22_">
</g>
<g id="XMLID_23_">
</g>
<g id="XMLID_24_">
</g>
<g id="XMLID_25_" class="st0">
</g>
</svg>
